<mxfile host="app.diagrams.net" modified="2024-08-13T23:55:22.574Z" agent="Mozilla/5.0 (X11; Linux x86_64) AppleWebKit/537.36 (KHTML, like Gecko) Chrome/127.0.0.0 Safari/537.36" etag="9lHoGmqSX3OThkSbqOy3" version="24.5.4" type="device">
  <diagram name="Page-1" id="ua57lJ8BW-i45Udtyi1W">
    <mxGraphModel dx="398" dy="208" grid="1" gridSize="10" guides="1" tooltips="1" connect="1" arrows="1" fold="1" page="1" pageScale="1" pageWidth="850" pageHeight="1100" math="0" shadow="0">
      <root>
        <mxCell id="0" />
        <mxCell id="1" parent="0" />
        <mxCell id="lYIgqztnk5Dju2T7eXqt-34" style="edgeStyle=orthogonalEdgeStyle;rounded=0;orthogonalLoop=1;jettySize=auto;html=1;endArrow=none;endFill=0;" edge="1" parent="1" source="lYIgqztnk5Dju2T7eXqt-1" target="lYIgqztnk5Dju2T7eXqt-33">
          <mxGeometry relative="1" as="geometry" />
        </mxCell>
        <mxCell id="lYIgqztnk5Dju2T7eXqt-39" value="n" style="edgeLabel;html=1;align=center;verticalAlign=middle;resizable=0;points=[];" vertex="1" connectable="0" parent="lYIgqztnk5Dju2T7eXqt-34">
          <mxGeometry x="0.0212" relative="1" as="geometry">
            <mxPoint as="offset" />
          </mxGeometry>
        </mxCell>
        <mxCell id="lYIgqztnk5Dju2T7eXqt-1" value="alumno" style="rounded=0;whiteSpace=wrap;html=1;fillColor=#dae8fc;strokeColor=#6c8ebf;" vertex="1" parent="1">
          <mxGeometry x="250" y="270" width="200" height="100" as="geometry" />
        </mxCell>
        <mxCell id="lYIgqztnk5Dju2T7eXqt-7" style="edgeStyle=orthogonalEdgeStyle;rounded=0;orthogonalLoop=1;jettySize=auto;html=1;entryX=0.5;entryY=0;entryDx=0;entryDy=0;endArrow=none;endFill=0;" edge="1" parent="1" source="lYIgqztnk5Dju2T7eXqt-3" target="lYIgqztnk5Dju2T7eXqt-1">
          <mxGeometry relative="1" as="geometry" />
        </mxCell>
        <mxCell id="lYIgqztnk5Dju2T7eXqt-3" value="&lt;b&gt;id_alumno&lt;/b&gt;" style="ellipse;whiteSpace=wrap;html=1;" vertex="1" parent="1">
          <mxGeometry x="10" y="170" width="120" height="80" as="geometry" />
        </mxCell>
        <mxCell id="lYIgqztnk5Dju2T7eXqt-8" style="edgeStyle=orthogonalEdgeStyle;rounded=0;orthogonalLoop=1;jettySize=auto;html=1;endArrow=none;endFill=0;" edge="1" parent="1" source="lYIgqztnk5Dju2T7eXqt-4" target="lYIgqztnk5Dju2T7eXqt-1">
          <mxGeometry relative="1" as="geometry" />
        </mxCell>
        <mxCell id="lYIgqztnk5Dju2T7eXqt-4" value="nombre" style="ellipse;whiteSpace=wrap;html=1;" vertex="1" parent="1">
          <mxGeometry x="10" y="280" width="120" height="80" as="geometry" />
        </mxCell>
        <mxCell id="lYIgqztnk5Dju2T7eXqt-9" style="edgeStyle=orthogonalEdgeStyle;rounded=0;orthogonalLoop=1;jettySize=auto;html=1;entryX=0.5;entryY=1;entryDx=0;entryDy=0;endArrow=none;endFill=0;" edge="1" parent="1" source="lYIgqztnk5Dju2T7eXqt-5" target="lYIgqztnk5Dju2T7eXqt-1">
          <mxGeometry relative="1" as="geometry" />
        </mxCell>
        <mxCell id="lYIgqztnk5Dju2T7eXqt-5" value="apellido" style="ellipse;whiteSpace=wrap;html=1;" vertex="1" parent="1">
          <mxGeometry x="10" y="380" width="120" height="80" as="geometry" />
        </mxCell>
        <mxCell id="lYIgqztnk5Dju2T7eXqt-25" value="grupo" style="rounded=0;whiteSpace=wrap;html=1;fillColor=#dae8fc;strokeColor=#6c8ebf;" vertex="1" parent="1">
          <mxGeometry x="800" y="270" width="200" height="100" as="geometry" />
        </mxCell>
        <mxCell id="lYIgqztnk5Dju2T7eXqt-26" style="edgeStyle=orthogonalEdgeStyle;rounded=0;orthogonalLoop=1;jettySize=auto;html=1;entryX=0.5;entryY=0;entryDx=0;entryDy=0;endArrow=none;endFill=0;" edge="1" parent="1" source="lYIgqztnk5Dju2T7eXqt-27" target="lYIgqztnk5Dju2T7eXqt-25">
          <mxGeometry relative="1" as="geometry" />
        </mxCell>
        <mxCell id="lYIgqztnk5Dju2T7eXqt-27" value="&lt;b&gt;id_grupo&lt;/b&gt;" style="ellipse;whiteSpace=wrap;html=1;" vertex="1" parent="1">
          <mxGeometry x="1090" y="170" width="120" height="80" as="geometry" />
        </mxCell>
        <mxCell id="lYIgqztnk5Dju2T7eXqt-28" style="edgeStyle=orthogonalEdgeStyle;rounded=0;orthogonalLoop=1;jettySize=auto;html=1;endArrow=none;endFill=0;entryX=1;entryY=0.5;entryDx=0;entryDy=0;" edge="1" parent="1" source="lYIgqztnk5Dju2T7eXqt-29" target="lYIgqztnk5Dju2T7eXqt-25">
          <mxGeometry relative="1" as="geometry">
            <mxPoint x="1330" y="320" as="targetPoint" />
          </mxGeometry>
        </mxCell>
        <mxCell id="lYIgqztnk5Dju2T7eXqt-29" value="color" style="ellipse;whiteSpace=wrap;html=1;" vertex="1" parent="1">
          <mxGeometry x="1090" y="280" width="120" height="80" as="geometry" />
        </mxCell>
        <mxCell id="lYIgqztnk5Dju2T7eXqt-30" style="edgeStyle=orthogonalEdgeStyle;rounded=0;orthogonalLoop=1;jettySize=auto;html=1;entryX=0.5;entryY=1;entryDx=0;entryDy=0;endArrow=none;endFill=0;" edge="1" parent="1" source="lYIgqztnk5Dju2T7eXqt-31" target="lYIgqztnk5Dju2T7eXqt-25">
          <mxGeometry relative="1" as="geometry" />
        </mxCell>
        <mxCell id="lYIgqztnk5Dju2T7eXqt-31" value="cantidad_por_grupo" style="ellipse;whiteSpace=wrap;html=1;" vertex="1" parent="1">
          <mxGeometry x="1090" y="380" width="120" height="80" as="geometry" />
        </mxCell>
        <mxCell id="lYIgqztnk5Dju2T7eXqt-38" value="" style="edgeStyle=orthogonalEdgeStyle;rounded=0;orthogonalLoop=1;jettySize=auto;html=1;entryX=0;entryY=0.5;entryDx=0;entryDy=0;endArrow=none;endFill=0;" edge="1" parent="1" source="lYIgqztnk5Dju2T7eXqt-33" target="lYIgqztnk5Dju2T7eXqt-25">
          <mxGeometry relative="1" as="geometry" />
        </mxCell>
        <mxCell id="lYIgqztnk5Dju2T7eXqt-40" value="1" style="edgeLabel;html=1;align=center;verticalAlign=middle;resizable=0;points=[];" vertex="1" connectable="0" parent="lYIgqztnk5Dju2T7eXqt-38">
          <mxGeometry x="0.1762" relative="1" as="geometry">
            <mxPoint as="offset" />
          </mxGeometry>
        </mxCell>
        <mxCell id="lYIgqztnk5Dju2T7eXqt-33" value="tiene&amp;nbsp;" style="rhombus;whiteSpace=wrap;html=1;fillColor=#f8cecc;strokeColor=#b85450;" vertex="1" parent="1">
          <mxGeometry x="560" y="230" width="170" height="180" as="geometry" />
        </mxCell>
      </root>
    </mxGraphModel>
  </diagram>
</mxfile>
